<?xml version="1.0" encoding="utf-8"?>
<!-- Generator: Adobe Illustrator 19.0.0, SVG Export Plug-In . SVG Version: 6.00 Build 0)  -->
<svg version="1.1" id="Capa_1" xmlns="http://www.w3.org/2000/svg" xmlns:xlink="http://www.w3.org/1999/xlink" x="0px" y="0px"
	 viewBox="-445 266.7 548.3 548.3" style="enable-background:new -445 266.7 548.3 548.3;" xml:space="preserve">
<g>
	<path d="M24.7,431.8h-9.8v-47.3c0-0.3,0-0.6-0.1-0.9c0-1.9-0.6-3.7-1.9-5.2l-78.6-89.8c0,0,0,0-0.1-0.1c-0.5-0.5-1-1-1.6-1.3
		c-0.2-0.1-0.3-0.2-0.5-0.3c-0.5-0.3-1-0.5-1.6-0.7c-0.1,0-0.3-0.1-0.4-0.1c-0.6-0.1-1.2-0.2-1.8-0.2H-265c-8.8,0-16,7.2-16,16
		v129.9h-9.8c-12.6,0-22.9,10.2-22.9,22.9v118.9c0,12.6,10.2,22.9,22.9,22.9h9.8v81.4c0,8.8,7.2,16,16,16H-1c8.8,0,16-7.2,16-16
		v-81.4h9.8c12.6,0,22.9-10.2,22.9-22.9V454.7C47.6,442,37.4,431.8,24.7,431.8z M-265,301.9h185.3v81.8c0,4.4,3.6,8,8,8H-1v40.1
		H-265V301.9z M-63.5,535.8c5.8,0,12.3-1.3,16.1-2.8l2.9,15.1c-3.5,1.8-11.5,3.7-21.9,3.7c-29.6,0-44.8-18.4-44.8-42.8
		c0-29.2,20.8-45.4,46.7-45.4c10,0,17.6,2,21.1,3.8l-3.9,15.4c-3.9-1.7-9.4-3.2-16.2-3.2c-15.4,0-27.3,9.3-27.3,28.3
		C-90.9,525-80.8,535.8-63.5,535.8z M-120,506.8c0,28-17,45-42,45c-25.4,0-40.2-19.2-40.2-43.5c0-25.6,16.4-44.8,41.6-44.8
		C-134.3,463.6-120,483.2-120,506.8z M-286.6,550.1v-84c7.1-1.1,16.4-1.8,26.1-1.8c16.2,0,26.8,2.9,35,9.1
		c8.9,6.6,14.5,17.1,14.5,32.2c0,16.4-6,27.7-14.2,34.6c-9,7.5-22.7,11-39.5,11C-274.6,551.4-281.7,550.7-286.6,550.1z M-1,673.5
		H-265v-77H-1L-1,673.5L-1,673.5z M13.6,550.5L5.9,535c-3.2-6-5.2-10.4-7.6-15.4H-2c-1.8,5-3.9,9.4-6.6,15.4l-7.1,15.5h-22.1
		l24.7-43.3L-36.9,465h22.2l7.5,15.6c2.5,5.2,4.4,9.4,6.5,14.2h0.2c2-5.5,3.7-9.3,5.8-14.2l7.2-15.6h22.1l-24.1,41.7l25.4,43.8H13.6
		L13.6,550.5z"/>
	<path d="M-231.5,506.3c0.1-17.8-10.3-27.1-26.9-27.1c-4.3,0-7.1,0.4-8.8,0.8v55.9c1.7,0.4,4.3,0.4,6.7,0.4
		C-242.9,536.4-231.5,526.7-231.5,506.3z"/>
	<path d="M-181.8,508c0,16.7,7.9,28.5,20.8,28.5c13.1,0,20.5-12.4,20.5-29c0-15.4-7.4-28.5-20.7-28.5
		C-174.1,478.9-181.8,491.4-181.8,508z"/>
</g>
</svg>
