<?xml version="1.0" encoding="utf-8"?>
<!-- Generator: Adobe Illustrator 19.0.0, SVG Export Plug-In . SVG Version: 6.00 Build 0)  -->
<svg version="1.1" id="Capa_1" xmlns="http://www.w3.org/2000/svg" xmlns:xlink="http://www.w3.org/1999/xlink" x="0px" y="0px"
	 viewBox="-463 285.4 511.6 511.6" style="enable-background:new -463 285.4 511.6 511.6;" xml:space="preserve">
<g>
	<g>
		<path d="M-121.9,563.9h-11.4c-1.7,0-3,0.5-4.1,1.6c-1.1,1.1-1.6,2.4-1.6,4.1v56.9c0,7.8-2.8,14.5-8.3,20.1
			c-5.6,5.6-12.3,8.3-20.1,8.3h-147.8c-7.8,0-14.5-2.8-20.1-8.3c-5.6-5.6-8.3-12.3-8.3-20.1V478.6c0-7.8,2.8-14.5,8.3-20.1
			c5.6-5.6,12.3-8.3,20.1-8.3h125.1c1.7,0,3-0.5,4.1-1.6c1.1-1.1,1.6-2.4,1.6-4.1v-11.4c0-1.7-0.5-3-1.6-4.1
			c-1.1-1.1-2.4-1.6-4.1-1.6h-125.1c-14.1,0-26.1,5-36.2,15c-10,10-15,22.1-15,36.2v147.8c0,14.1,5,26.1,15,36.2
			c10,10,22.1,15,36.2,15h147.8c14.1,0,26.1-5,36.2-15c10-10,15-22.1,15-36.2v-56.8c0-1.7-0.5-3-1.6-4.1
			C-118.9,564.5-120.3,563.9-121.9,563.9z"/>
		<path d="M-51.4,408.1c-2.3-2.3-4.9-3.4-8-3.4h-91c-3.1,0-5.7,1.1-8,3.4c-2.3,2.2-3.4,4.9-3.4,8s1.1,5.7,3.4,8l31.3,31.3
			l-115.8,115.8c-1.2,1.2-1.8,2.5-1.8,4.1c0,1.5,0.6,2.9,1.8,4.1l20.3,20.3c1.2,1.2,2.5,1.8,4.1,1.8s2.9-0.6,4.1-1.8l115.8-115.8
			l31.3,31.3c2.2,2.3,4.9,3.4,8,3.4c3.1,0,5.7-1.1,8-3.4c2.3-2.3,3.4-4.9,3.4-8v-91C-48,413-49.1,410.4-51.4,408.1z"/>
	</g>
</g>
</svg>
