<?xml version="1.0" encoding="utf-8"?>
<!-- Generator: Adobe Illustrator 19.0.0, SVG Export Plug-In . SVG Version: 6.00 Build 0)  -->
<svg version="1.1" id="Capa_1" xmlns="http://www.w3.org/2000/svg" xmlns:xlink="http://www.w3.org/1999/xlink" x="0px" y="0px"
	 viewBox="-478 299.9 482.1 482.1" style="enable-background:new -478 299.9 482.1 482.1;" xml:space="preserve">
<g>
	<path d="M-323.2,601.1c0-7-4.8-11.1-13.4-11.1c-3.5,0-5.8,0.3-7.1,0.7V613c1.5,0.3,3.3,0.4,5.7,0.4
		C-328.8,613.5-323.2,608.9-323.2,601.1z"/>
	<path d="M-270.3,590.2c-3.8,0-6.3,0.3-7.8,0.7v49.6c1.5,0.3,3.8,0.3,6,0.3c15.5,0.1,25.6-8.4,25.6-26.5
		C-246.4,598.6-255.6,590.2-270.3,590.2z"/>
	<path d="M-172.1,331h-168.7c-24.6,0-44.7,20.1-44.7,44.7v165.3h-4.4c-9.9,0-18,8.1-18,18v109.2c0,10,8.1,18,18,18h4.4v20
		c0,24.7,20.1,44.7,44.7,44.7h230.1c24.6,0,44.7-20,44.7-44.7V436.7L-172.1,331z M-360.6,578.6c5.3-0.9,12.7-1.6,23.1-1.6
		c10.6,0,18.1,2,23.1,6.1c4.8,3.8,8.1,10.1,8.1,17.5c0,7.4-2.5,13.7-7,18c-5.8,5.5-14.5,8-24.6,8c-2.3,0-4.3-0.1-5.8-0.3v27.1h-17
		V578.6z M-110.7,723.5h-230.1c-9.5,0-17.3-7.8-17.3-17.3v-20h214.5c9.9,0,18-8.1,18-18V558.9c0-10-8.1-18-18-18h-214.5V375.7
		c0-9.5,7.8-17.3,17.3-17.3l158.4-0.2v58.6c0,17.1,13.9,31,31,31l57.4-0.2l0.6,258.6C-93.4,715.7-101.1,723.5-110.7,723.5z
		 M-295.3,653v-74.4c6.3-1,14.5-1.6,23.1-1.6c14.4,0,23.7,2.6,31,8.1c7.9,5.8,12.8,15.2,12.8,28.5c0,14.5-5.3,24.5-12.6,30.7
		c-8,6.6-20.1,9.8-34.9,9.8C-284.7,654.2-291,653.6-295.3,653z M-172.6,609v13.9h-27.2v30.5H-217v-75.7h46.3v14h-29.1V609H-172.6z"
		/>
</g>
</svg>
